<svg width="24" height="24" viewBox="0 0 24 24" fill="none" xmlns="http://www.w3.org/2000/svg">
<path d="M11.4694 17.0307L3.96938 9.53068C3.8997 9.46099 3.84443 9.37827 3.80672 9.28722C3.769 9.19618 3.74959 9.0986 3.74959 9.00005C3.74959 8.9015 3.769 8.80392 3.80672 8.71288C3.84443 8.62183 3.8997 8.53911 3.96938 8.46943C4.03907 8.39974 4.12179 8.34447 4.21284 8.30676C4.30388 8.26904 4.40146 8.24963 4.50001 8.24963C4.59856 8.24963 4.69614 8.26904 4.78718 8.30676C4.87823 8.34447 4.96095 8.39974 5.03063 8.46943L12 15.4397L18.9694 8.46943C19.1101 8.32869 19.301 8.24963 19.5 8.24963C19.699 8.24963 19.8899 8.32869 20.0306 8.46943C20.1714 8.61016 20.2504 8.80103 20.2504 9.00005C20.2504 9.19907 20.1714 9.38995 20.0306 9.53068L12.5306 17.0307C12.461 17.1004 12.3783 17.1557 12.2872 17.1935C12.1962 17.2312 12.0986 17.2506 12 17.2506C11.9014 17.2506 11.8039 17.2312 11.7128 17.1935C11.6218 17.1557 11.539 17.1004 11.4694 17.0307Z" fill="#060606"/>
</svg>
